<svg xmlns="http://www.w3.org/2000/svg" viewBox="0 0 1072 960" width="1072" height="960">
  <path d="M 678 731 L 677 732 L 666 735 L 664 737 L 661 738 L 657 742 L 653 744 L 653 745 L 646 751 L 640 760 L 637 766 L 637 768 L 635 770 L 633 775 L 633 780 L 632 781 L 632 798 L 633 799 L 635 810 L 639 820 L 648 832 L 660 843 L 670 848 L 672 848 L 679 851 L 703 851 L 704 850 L 707 850 L 713 847 L 715 847 L 724 842 L 732 835 L 733 835 L 738 829 L 739 829 L 748 812 L 748 810 L 750 807 L 750 804 L 751 803 L 751 792 L 752 791 L 751 778 L 750 777 L 748 769 L 745 765 L 745 763 L 743 761 L 742 757 L 730 744 L 723 740 L 720 737 L 714 734 L 712 734 L 710 732 L 708 732 L 707 731 L 702 731 L 701 730 L 684 730 L 683 731 Z M 368 731 L 365 733 L 357 735 L 351 740 L 345 743 L 345 744 L 341 748 L 340 748 L 337 752 L 334 759 L 332 761 L 329 767 L 329 770 L 327 773 L 326 780 L 325 781 L 325 797 L 326 798 L 326 803 L 327 804 L 328 811 L 330 814 L 330 816 L 332 818 L 332 820 L 334 822 L 334 824 L 338 828 L 340 832 L 348 840 L 353 842 L 356 845 L 360 846 L 362 848 L 364 848 L 367 850 L 371 850 L 372 851 L 391 851 L 392 850 L 400 850 L 418 842 L 422 838 L 423 838 L 428 833 L 437 820 L 441 812 L 442 804 L 445 799 L 445 783 L 444 782 L 443 774 L 440 768 L 440 766 L 433 754 L 429 751 L 428 748 L 425 747 L 422 743 L 419 742 L 414 738 L 404 733 L 402 733 L 392 729 L 377 729 L 376 730 Z M 176 489 L 166 494 L 164 494 L 161 497 L 156 499 L 150 505 L 150 506 L 147 508 L 140 518 L 137 524 L 137 527 L 135 530 L 134 536 L 133 537 L 133 541 L 132 542 L 132 560 L 133 561 L 133 565 L 135 567 L 138 577 L 143 586 L 146 589 L 146 590 L 157 600 L 161 601 L 164 604 L 169 605 L 172 607 L 180 608 L 181 609 L 198 609 L 199 608 L 204 608 L 210 605 L 213 605 L 215 603 L 218 602 L 220 600 L 222 600 L 228 596 L 232 592 L 233 592 L 233 591 L 243 579 L 244 574 L 247 569 L 247 565 L 249 560 L 249 542 L 248 541 L 248 536 L 245 530 L 243 522 L 240 518 L 240 516 L 238 515 L 237 512 L 236 512 L 227 502 L 218 496 L 212 493 L 206 492 L 199 489 Z M 880 488 L 879 489 L 875 489 L 859 495 L 854 499 L 851 500 L 845 506 L 844 506 L 843 508 L 842 508 L 836 516 L 832 524 L 831 529 L 829 532 L 829 534 L 827 538 L 827 541 L 826 542 L 826 553 L 827 554 L 827 559 L 828 560 L 829 567 L 831 570 L 831 572 L 833 575 L 834 579 L 836 581 L 837 584 L 844 591 L 844 592 L 853 600 L 862 605 L 868 606 L 869 607 L 880 608 L 881 609 L 897 609 L 898 608 L 903 608 L 908 605 L 915 603 L 923 596 L 926 595 L 935 585 L 939 579 L 941 571 L 944 565 L 944 562 L 945 561 L 946 542 L 944 538 L 944 534 L 943 533 L 942 528 L 940 526 L 940 524 L 937 518 L 931 509 L 919 498 L 910 493 L 908 493 L 905 491 L 903 491 L 899 489 L 894 489 L 893 488 Z M 807 190 L 803 192 L 796 193 L 793 195 L 791 195 L 783 200 L 781 200 L 780 202 L 774 206 L 774 207 L 772 208 L 766 215 L 760 226 L 759 232 L 757 236 L 756 244 L 755 245 L 755 256 L 756 257 L 757 267 L 760 273 L 760 277 L 766 286 L 774 295 L 778 298 L 787 302 L 791 305 L 793 305 L 797 308 L 803 309 L 804 310 L 808 310 L 809 311 L 822 311 L 823 310 L 828 310 L 829 309 L 831 309 L 844 303 L 849 299 L 852 298 L 856 295 L 858 292 L 859 292 L 869 277 L 869 275 L 871 272 L 872 265 L 874 261 L 874 255 L 875 254 L 875 252 L 874 251 L 874 245 L 873 244 L 873 239 L 872 238 L 871 231 L 868 226 L 867 221 L 863 215 L 861 210 L 860 210 L 855 205 L 855 204 L 853 203 L 853 202 L 847 199 L 845 197 L 843 197 L 840 195 L 838 195 L 836 193 L 833 193 L 829 191 L 826 191 L 825 190 Z M 264 189 L 244 192 L 242 194 L 239 194 L 237 196 L 233 198 L 231 198 L 224 203 L 215 212 L 214 212 L 212 215 L 211 219 L 207 225 L 207 228 L 206 229 L 206 231 L 204 233 L 204 236 L 202 241 L 202 251 L 203 252 L 203 261 L 204 262 L 204 265 L 209 277 L 216 287 L 217 290 L 221 294 L 221 295 L 227 299 L 229 299 L 235 304 L 237 304 L 239 306 L 241 306 L 244 308 L 246 308 L 250 310 L 254 310 L 255 311 L 264 311 L 265 310 L 276 309 L 279 307 L 282 307 L 300 297 L 308 290 L 313 283 L 319 270 L 319 268 L 321 264 L 321 261 L 322 260 L 322 241 L 320 237 L 320 234 L 319 233 L 318 228 L 315 223 L 315 221 L 312 218 L 307 210 L 305 209 L 302 205 L 295 201 L 292 198 L 290 198 L 285 195 L 283 195 L 273 191 L 265 190 Z M 528 55 L 527 56 L 524 56 L 519 59 L 514 60 L 507 65 L 505 65 L 499 71 L 498 71 L 497 73 L 494 74 L 484 87 L 483 94 L 479 102 L 479 105 L 478 106 L 478 121 L 479 122 L 479 127 L 480 128 L 481 134 L 488 149 L 490 152 L 502 163 L 505 164 L 509 168 L 512 168 L 515 170 L 517 170 L 524 173 L 528 173 L 529 174 L 546 174 L 547 173 L 551 173 L 555 171 L 562 170 L 568 167 L 573 163 L 575 163 L 575 162 L 577 161 L 587 151 L 589 146 L 593 140 L 595 133 L 597 131 L 597 127 L 598 126 L 597 105 L 596 104 L 596 99 L 594 96 L 593 91 L 590 85 L 587 82 L 584 76 L 572 65 L 566 62 L 564 60 L 562 60 L 559 58 L 557 58 L 553 56 L 549 56 L 548 55 Z M 699 37 L 676 57 L 666 138 L 574 196 L 488 193 L 414 140 L 401 55 L 387 39 L 368 45 L 362 100 L 317 71 L 303 73 L 301 100 L 358 157 L 348 274 L 293 336 L 199 362 L 108 317 L 98 336 L 136 379 L 80 405 L 98 426 L 187 418 L 256 480 L 276 544 L 278 584 L 243 670 L 162 700 L 152 725 L 164 733 L 219 726 L 200 773 L 212 793 L 231 787 L 272 718 L 380 697 L 454 734 L 510 829 L 483 902 L 495 934 L 511 928 L 538 882 L 568 929 L 588 929 L 595 904 L 568 826 L 616 741 L 690 699 L 801 715 L 843 782 L 874 789 L 878 771 L 858 726 L 913 734 L 926 719 L 911 698 L 831 663 L 797 577 L 815 491 L 892 417 L 978 426 L 998 410 L 986 393 L 939 378 L 976 337 L 968 318 L 942 321 L 873 362 L 785 337 L 724 264 L 720 157 L 766 114 L 780 84 L 760 71 L 716 100 L 712 53 Z M 538 635 L 541 635 L 542 636 L 542 637 L 547 646 L 547 649 L 548 650 L 548 652 L 550 655 L 550 658 L 551 659 L 551 661 L 554 666 L 554 669 L 555 670 L 555 672 L 556 673 L 556 676 L 557 677 L 557 680 L 558 681 L 558 685 L 559 686 L 559 691 L 560 692 L 560 706 L 559 707 L 559 709 L 557 712 L 557 714 L 556 715 L 556 718 L 554 721 L 554 723 L 551 728 L 551 730 L 550 731 L 550 733 L 549 734 L 549 737 L 548 738 L 548 740 L 545 745 L 545 747 L 543 750 L 543 752 L 540 756 L 538 756 L 536 754 L 536 753 L 532 746 L 532 744 L 531 743 L 530 738 L 527 733 L 527 731 L 526 730 L 526 728 L 525 727 L 525 724 L 522 719 L 522 716 L 521 715 L 521 713 L 519 710 L 519 707 L 518 706 L 518 694 L 519 693 L 519 683 L 520 682 L 520 678 L 521 677 L 521 674 L 522 673 L 522 671 L 523 670 L 523 668 L 524 667 L 525 662 L 526 661 L 526 660 L 527 659 L 527 657 L 529 654 L 529 652 L 530 651 L 530 650 L 532 647 L 532 645 L 534 642 L 534 640 Z M 583 622 L 596 622 L 597 623 L 610 623 L 617 617 L 619 613 L 623 609 L 623 608 L 627 604 L 627 603 L 629 601 L 632 601 L 636 609 L 636 613 L 638 617 L 638 620 L 639 621 L 639 624 L 640 626 L 645 630 L 647 630 L 650 632 L 657 633 L 661 635 L 664 635 L 665 636 L 667 636 L 669 638 L 669 640 L 665 644 L 664 644 L 656 650 L 651 652 L 651 653 L 647 657 L 646 659 L 646 686 L 645 687 L 641 687 L 639 686 L 637 684 L 636 684 L 626 674 L 625 674 L 623 672 L 619 670 L 614 670 L 613 671 L 611 671 L 609 673 L 604 674 L 601 676 L 599 676 L 595 678 L 591 678 L 589 675 L 589 672 L 591 671 L 591 668 L 595 661 L 595 659 L 596 658 L 596 655 L 597 654 L 597 648 L 596 647 L 596 645 L 595 643 L 581 627 L 581 624 Z M 444 601 L 447 601 L 453 607 L 454 610 L 459 615 L 461 619 L 462 619 L 467 623 L 479 623 L 480 622 L 485 622 L 486 621 L 494 621 L 496 623 L 496 625 L 494 629 L 485 639 L 481 647 L 481 653 L 482 654 L 482 656 L 484 660 L 484 663 L 486 666 L 486 668 L 488 672 L 488 676 L 486 678 L 484 678 L 483 677 L 480 677 L 477 675 L 475 675 L 472 673 L 470 673 L 469 672 L 467 672 L 463 670 L 458 670 L 454 673 L 453 673 L 450 676 L 449 676 L 445 680 L 444 680 L 443 682 L 436 688 L 433 688 L 432 687 L 432 685 L 431 684 L 431 658 L 426 652 L 422 650 L 415 644 L 412 643 L 409 640 L 409 638 L 411 636 L 413 636 L 416 634 L 419 634 L 420 633 L 424 633 L 425 632 L 430 631 L 434 629 L 437 626 L 439 622 L 439 619 L 440 618 L 440 615 L 441 614 L 441 609 L 442 608 L 442 605 Z M 669 574 L 670 573 L 676 573 L 677 574 L 682 574 L 683 575 L 688 576 L 691 578 L 694 578 L 695 579 L 697 579 L 700 581 L 702 581 L 704 583 L 709 584 L 710 585 L 713 586 L 715 588 L 718 588 L 720 590 L 723 591 L 726 594 L 727 594 L 732 599 L 732 600 L 733 600 L 734 601 L 734 602 L 738 607 L 738 608 L 739 609 L 739 610 L 741 612 L 743 617 L 745 619 L 745 620 L 749 625 L 749 627 L 751 629 L 752 632 L 755 635 L 755 636 L 759 643 L 759 645 L 758 646 L 754 646 L 753 645 L 748 645 L 747 644 L 744 644 L 741 642 L 738 642 L 737 641 L 735 641 L 734 640 L 732 640 L 731 639 L 728 639 L 727 638 L 725 638 L 724 637 L 721 637 L 720 636 L 718 636 L 715 634 L 710 633 L 709 632 L 702 629 L 696 623 L 695 620 L 691 616 L 691 615 L 690 615 L 689 614 L 689 613 L 685 609 L 685 607 L 684 606 L 684 605 L 679 599 L 679 598 L 674 589 L 674 587 L 672 585 L 672 584 L 669 579 Z M 408 574 L 408 578 L 407 579 L 407 582 L 404 586 L 402 592 L 400 594 L 399 597 L 397 599 L 397 600 L 394 604 L 393 607 L 390 610 L 390 611 L 388 613 L 388 614 L 374 629 L 373 629 L 369 632 L 367 632 L 366 633 L 363 633 L 362 634 L 359 634 L 358 635 L 356 635 L 355 636 L 353 636 L 352 637 L 347 638 L 344 640 L 342 640 L 341 641 L 339 641 L 338 642 L 336 642 L 335 643 L 333 643 L 332 644 L 330 644 L 329 645 L 327 645 L 326 646 L 323 646 L 322 647 L 318 647 L 317 646 L 317 644 L 318 643 L 319 640 L 321 638 L 321 636 L 322 635 L 323 635 L 324 632 L 328 627 L 329 624 L 335 616 L 335 615 L 336 614 L 336 613 L 337 612 L 340 605 L 342 603 L 342 602 L 349 595 L 350 595 L 354 591 L 356 591 L 356 590 L 357 589 L 358 589 L 359 588 L 361 588 L 365 585 L 370 584 L 377 580 L 380 580 L 381 579 L 383 579 L 384 578 L 386 578 L 387 577 L 389 577 L 390 576 L 392 576 L 393 575 L 395 575 L 396 574 L 400 574 L 401 573 L 407 573 Z M 303 522 L 306 519 L 309 518 L 315 512 L 316 512 L 325 503 L 325 489 L 324 488 L 324 481 L 323 480 L 323 478 L 325 475 L 328 475 L 332 477 L 334 479 L 337 480 L 343 485 L 345 486 L 347 486 L 348 487 L 351 487 L 352 488 L 354 488 L 355 487 L 358 487 L 361 485 L 366 484 L 369 482 L 371 482 L 375 480 L 379 480 L 380 481 L 380 485 L 379 486 L 379 488 L 378 489 L 378 491 L 377 492 L 377 494 L 376 495 L 376 497 L 374 501 L 374 509 L 376 513 L 389 526 L 389 527 L 391 529 L 391 532 L 389 534 L 382 534 L 381 535 L 371 535 L 370 536 L 366 536 L 362 538 L 358 542 L 358 543 L 354 548 L 354 550 L 352 552 L 351 555 L 346 560 L 344 560 L 338 548 L 338 546 L 337 545 L 336 540 L 334 536 L 330 532 L 328 531 L 325 531 L 324 530 L 320 530 L 319 529 L 313 529 L 312 528 L 309 528 L 307 526 L 304 526 L 303 525 Z M 752 474 L 753 475 L 753 486 L 752 487 L 752 503 L 753 505 L 757 509 L 758 509 L 764 515 L 765 515 L 768 518 L 769 518 L 772 521 L 773 521 L 774 522 L 774 524 L 771 527 L 769 527 L 768 528 L 764 528 L 763 529 L 758 529 L 757 530 L 752 530 L 749 532 L 747 532 L 745 533 L 741 540 L 741 542 L 739 545 L 739 547 L 738 548 L 738 551 L 735 556 L 735 558 L 733 560 L 731 560 L 726 554 L 722 546 L 719 543 L 719 542 L 716 538 L 714 537 L 712 537 L 711 536 L 707 536 L 706 535 L 697 535 L 696 534 L 689 534 L 686 532 L 687 527 L 699 515 L 699 514 L 702 511 L 702 509 L 703 508 L 703 501 L 699 493 L 699 490 L 696 484 L 696 481 L 697 480 L 703 480 L 708 483 L 711 483 L 719 487 L 729 487 L 735 484 L 737 482 L 740 481 L 746 476 L 750 474 Z M 813 406 L 813 408 L 812 409 L 811 409 L 809 412 L 808 412 L 805 415 L 802 416 L 799 419 L 796 420 L 791 424 L 788 425 L 785 428 L 784 428 L 784 429 L 781 432 L 780 432 L 777 435 L 776 435 L 771 439 L 767 439 L 766 440 L 759 440 L 758 441 L 748 441 L 747 442 L 736 442 L 735 441 L 724 441 L 723 440 L 719 440 L 718 439 L 713 439 L 712 438 L 710 438 L 709 437 L 706 437 L 702 433 L 702 431 L 706 427 L 707 427 L 713 422 L 714 422 L 717 419 L 718 419 L 719 418 L 719 417 L 720 416 L 721 416 L 725 412 L 726 412 L 727 411 L 728 411 L 729 410 L 734 408 L 736 406 L 737 406 L 738 405 L 743 403 L 745 401 L 746 401 L 749 399 L 756 399 L 757 398 L 772 398 L 773 399 L 779 399 L 780 400 L 785 400 L 786 401 L 790 401 L 791 402 L 798 402 L 799 403 L 803 403 L 804 404 L 810 404 Z M 264 406 L 265 405 L 269 405 L 270 404 L 275 404 L 276 403 L 280 403 L 281 402 L 288 402 L 289 401 L 292 401 L 293 400 L 297 400 L 298 399 L 311 399 L 312 398 L 322 398 L 323 399 L 327 399 L 328 400 L 330 400 L 332 402 L 333 402 L 334 403 L 335 403 L 336 404 L 337 404 L 338 405 L 339 405 L 340 406 L 341 406 L 342 407 L 349 410 L 351 412 L 352 412 L 353 413 L 354 413 L 356 415 L 357 415 L 358 416 L 358 417 L 360 419 L 361 419 L 365 423 L 366 423 L 368 425 L 369 425 L 371 427 L 372 427 L 375 430 L 375 431 L 376 432 L 376 434 L 373 437 L 371 437 L 370 438 L 364 438 L 363 439 L 358 439 L 357 440 L 355 440 L 354 441 L 341 441 L 340 442 L 324 442 L 323 441 L 316 441 L 315 440 L 309 440 L 307 438 L 305 438 L 304 437 L 303 437 L 300 434 L 299 434 L 297 432 L 296 432 L 293 429 L 293 428 L 288 426 L 281 420 L 278 419 L 271 413 L 268 412 L 264 408 Z M 597 348 L 600 350 L 609 368 L 637 407 L 668 440 L 654 491 L 643 553 L 639 556 L 635 556 L 603 569 L 564 589 L 541 604 L 537 604 L 495 579 L 435 554 L 431 541 L 431 533 L 421 483 L 409 446 L 409 439 L 435 413 L 467 371 L 477 352 L 480 350 L 550 352 Z M 674 307 L 679 307 L 687 316 L 687 317 L 688 317 L 693 322 L 695 323 L 697 323 L 698 324 L 707 324 L 708 323 L 712 323 L 713 322 L 715 322 L 716 321 L 719 321 L 720 320 L 726 320 L 727 321 L 727 325 L 722 334 L 722 336 L 719 339 L 719 341 L 717 345 L 717 353 L 724 362 L 724 364 L 726 368 L 728 370 L 728 372 L 729 373 L 729 375 L 728 376 L 718 376 L 717 375 L 713 375 L 712 374 L 700 374 L 699 375 L 697 375 L 695 376 L 694 379 L 692 380 L 690 384 L 688 385 L 688 386 L 686 388 L 685 388 L 682 391 L 678 391 L 675 388 L 675 386 L 674 385 L 674 380 L 672 376 L 672 371 L 671 370 L 671 368 L 668 365 L 668 364 L 666 364 L 662 361 L 654 357 L 652 357 L 645 353 L 645 351 L 648 348 L 649 348 L 652 345 L 656 343 L 658 343 L 661 340 L 664 339 L 667 336 L 667 334 L 669 331 L 669 325 L 670 324 L 670 317 L 671 316 L 671 311 Z M 404 305 L 406 307 L 406 310 L 407 311 L 407 319 L 408 320 L 408 329 L 409 330 L 409 332 L 410 333 L 410 335 L 411 337 L 416 341 L 418 341 L 422 343 L 424 345 L 431 348 L 433 350 L 433 352 L 431 354 L 426 356 L 422 359 L 420 359 L 415 362 L 412 362 L 410 363 L 407 366 L 407 368 L 405 372 L 405 377 L 404 378 L 404 384 L 403 385 L 403 387 L 402 388 L 402 392 L 401 393 L 398 393 L 396 392 L 393 389 L 393 388 L 380 375 L 377 375 L 376 374 L 371 374 L 370 375 L 362 375 L 361 376 L 350 376 L 349 375 L 349 372 L 352 366 L 356 361 L 357 358 L 359 356 L 361 352 L 361 345 L 358 339 L 356 337 L 353 329 L 351 327 L 351 325 L 350 324 L 350 321 L 351 320 L 357 320 L 358 321 L 361 321 L 362 322 L 365 322 L 366 323 L 370 323 L 371 324 L 375 324 L 376 325 L 378 325 L 379 324 L 382 324 L 386 322 L 399 307 L 400 307 L 402 305 Z M 537 227 L 542 227 L 543 228 L 544 232 L 546 234 L 548 238 L 548 240 L 551 245 L 551 247 L 555 252 L 559 254 L 563 254 L 564 255 L 569 255 L 570 256 L 576 256 L 577 257 L 581 257 L 584 259 L 584 261 L 581 264 L 581 265 L 579 266 L 571 274 L 570 274 L 570 275 L 568 276 L 564 281 L 564 291 L 565 292 L 565 295 L 566 296 L 566 300 L 567 301 L 567 311 L 566 312 L 563 312 L 557 309 L 555 307 L 547 303 L 545 301 L 540 301 L 539 300 L 537 300 L 533 303 L 529 304 L 527 306 L 518 310 L 514 313 L 512 313 L 510 311 L 510 308 L 512 304 L 512 298 L 513 297 L 513 295 L 514 294 L 514 291 L 515 290 L 515 283 L 513 279 L 511 277 L 510 277 L 509 275 L 505 273 L 503 271 L 503 270 L 502 270 L 499 267 L 499 266 L 495 262 L 495 260 L 497 258 L 499 258 L 500 257 L 505 257 L 506 256 L 511 256 L 512 255 L 519 255 L 523 253 L 527 249 L 531 241 L 531 239 L 533 236 L 533 234 Z M 662 216 L 663 217 L 663 221 L 664 222 L 664 229 L 663 230 L 663 238 L 662 239 L 662 247 L 661 248 L 661 259 L 660 260 L 660 266 L 659 267 L 659 272 L 658 273 L 658 275 L 657 276 L 657 277 L 648 287 L 648 288 L 646 290 L 646 291 L 645 292 L 644 292 L 644 293 L 637 300 L 636 300 L 636 301 L 629 308 L 628 308 L 620 316 L 619 316 L 616 319 L 615 319 L 614 320 L 611 320 L 609 317 L 609 302 L 610 301 L 610 297 L 611 296 L 611 284 L 612 283 L 612 279 L 613 278 L 613 273 L 614 272 L 614 270 L 615 269 L 615 265 L 616 264 L 616 261 L 617 260 L 617 258 L 618 257 L 619 254 L 621 252 L 621 251 L 622 250 L 623 250 L 627 246 L 627 245 L 628 244 L 629 244 L 630 243 L 630 242 L 631 241 L 632 241 L 634 239 L 634 238 L 636 236 L 637 236 L 640 233 L 641 233 L 641 232 L 644 229 L 645 229 L 647 227 L 648 227 L 648 226 L 658 216 Z M 415 215 L 418 215 L 422 219 L 423 219 L 425 221 L 426 221 L 427 222 L 427 223 L 431 226 L 431 227 L 432 227 L 437 232 L 438 232 L 439 233 L 439 234 L 441 236 L 442 236 L 452 246 L 452 247 L 453 247 L 454 248 L 454 249 L 459 254 L 459 255 L 460 256 L 460 259 L 462 262 L 462 264 L 463 265 L 463 268 L 464 269 L 464 273 L 465 274 L 465 276 L 466 277 L 466 283 L 467 284 L 467 289 L 468 290 L 468 297 L 469 298 L 469 313 L 468 314 L 468 319 L 466 321 L 464 321 L 462 319 L 461 319 L 453 311 L 452 311 L 445 304 L 444 304 L 443 303 L 443 302 L 442 302 L 441 301 L 441 300 L 440 300 L 435 295 L 435 294 L 431 290 L 431 289 L 427 285 L 427 284 L 426 284 L 423 281 L 423 280 L 419 273 L 419 271 L 418 270 L 418 262 L 417 261 L 417 249 L 416 248 L 416 241 L 415 240 L 415 236 L 414 235 L 414 223 L 413 222 L 413 218 Z" fill="#d91677" fill-rule="evenodd"/>
</svg>
